HIERARCHY
ROOT mixamorig:Hips
{
	OFFSET 0.000000 201.639420 0.000000
	CHANNELS 6 Xposition Yposition Zposition Xrotation Yrotation Zrotation
	JOINT mixamorig:Spine
	{
		OFFSET 0.006200 19.524994 -2.481800
		CHANNELS 3 Xrotation Yrotation Zrotation
		JOINT mixamorig:Spine1
		{
			OFFSET -0.000900 22.835007 -2.825400
			CHANNELS 3 Xrotation Yrotation Zrotation
			JOINT mixamorig:Spine2
			{
				OFFSET -0.020600 26.552490 -3.193300
				CHANNELS 3 Xrotation Yrotation Zrotation
				JOINT mixamorig:Neck
				{
					OFFSET -0.060000 30.701813 1.352200
					CHANNELS 3 Xrotation Yrotation Zrotation
					JOINT mixamorig:Head
					{
						OFFSET -0.087200 22.547607 3.670900
						CHANNELS 3 Xrotation Yrotation Zrotation
						JOINT mixamorig:HeadTop_End
						{
							OFFSET -0.830600 40.355194 7.893500
							CHANNELS 3 Xrotation Yrotation Zrotation
							End Site
							{
								OFFSET 0.000000 30.592346 0.000000
							}
						}
						JOINT mixamorig:RightEye
						{
							OFFSET -6.302100 18.118591 16.197100
							CHANNELS 3 Xrotation Yrotation Zrotation
							End Site
							{
								OFFSET 0.000000 30.592346 0.000000
							}
						}
						JOINT mixamorig:LeftEye
						{
							OFFSET 6.741500 18.382690 16.401899
							CHANNELS 3 Xrotation Yrotation Zrotation
							End Site
							{
								OFFSET 0.000000 30.592346 0.000000
							}
						}
					}
				}
				JOINT mixamorig:LeftShoulder
				{
					OFFSET 11.924900 18.230499 1.425400
					CHANNELS 3 Xrotation Yrotation Zrotation
					JOINT mixamorig:LeftArm
					{
						OFFSET 25.435989 -0.697632 -5.229300
						CHANNELS 3 Xrotation Yrotation Zrotation
						JOINT mixamorig:LeftForeArm
						{
							OFFSET 54.684776 0.000000 0.000000
							CHANNELS 3 Xrotation Yrotation Zrotation
							JOINT mixamorig:LeftHand
							{
								OFFSET 55.098175 0.000000 0.000000
								CHANNELS 3 Xrotation Yrotation Zrotation
								JOINT mixamorig:LeftHandMiddle1
								{
									OFFSET 23.369751 0.000000 0.000000
									CHANNELS 3 Xrotation Yrotation Zrotation
									JOINT mixamorig:LeftHandMiddle2
									{
										OFFSET 6.378677 0.000000 0.000000
										CHANNELS 3 Xrotation Yrotation Zrotation
										JOINT mixamorig:LeftHandMiddle3
										{
											OFFSET 6.148331 0.000000 0.000000
											CHANNELS 3 Xrotation Yrotation Zrotation
											JOINT mixamorig:LeftHandMiddle4
											{
												OFFSET 6.582504 0.000000 0.000000
												CHANNELS 3 Xrotation Yrotation Zrotation
												End Site
												{
													OFFSET -1.168900 6.395691 1.028606
												}
											}
										}
									}
								}
								JOINT mixamorig:LeftHandThumb1
								{
									OFFSET 7.235672 -3.848206 5.434273
									CHANNELS 3 Xrotation Yrotation Zrotation
									JOINT mixamorig:LeftHandThumb2
									{
										OFFSET 6.568451 -3.792297 3.792300
										CHANNELS 3 Xrotation Yrotation Zrotation
										JOINT mixamorig:LeftHandThumb3
										{
											OFFSET 6.063080 -3.500519 3.500518
											CHANNELS 3 Xrotation Yrotation Zrotation
											JOINT mixamorig:LeftHandThumb4
											{
												OFFSET 4.793182 -2.767334 2.767349
												CHANNELS 3 Xrotation Yrotation Zrotation
												End Site
												{
													OFFSET 0.101639 6.054260 1.275483
												}
											}
										}
									}
								}
								JOINT mixamorig:LeftHandIndex1
								{
									OFFSET 23.101074 -0.309540 4.992809
									CHANNELS 3 Xrotation Yrotation Zrotation
									JOINT mixamorig:LeftHandIndex2
									{
										OFFSET 6.226883 0.000000 0.000000
										CHANNELS 3 Xrotation Yrotation Zrotation
										JOINT mixamorig:LeftHandIndex3
										{
											OFFSET 6.094330 0.000000 0.000000
											CHANNELS 3 Xrotation Yrotation Zrotation
											JOINT mixamorig:LeftHandIndex4
											{
												OFFSET 5.482605 0.000000 0.000000
												CHANNELS 3 Xrotation Yrotation Zrotation
												End Site
												{
													OFFSET -1.427902 5.233032 0.797164
												}
											}
										}
									}
								}
								JOINT mixamorig:LeftHandRing1
								{
									OFFSET 22.299240 0.021149 -3.964172
									CHANNELS 3 Xrotation Yrotation Zrotation
									JOINT mixamorig:LeftHandRing2
									{
										OFFSET 6.321869 0.000000 0.000000
										CHANNELS 3 Xrotation Yrotation Zrotation
										JOINT mixamorig:LeftHandRing3
										{
											OFFSET 5.899796 0.000000 0.000000
											CHANNELS 3 Xrotation Yrotation Zrotation
											JOINT mixamorig:LeftHandRing4
											{
												OFFSET 6.517899 0.000000 0.000000
												CHANNELS 3 Xrotation Yrotation Zrotation
												End Site
												{
													OFFSET -1.637299 6.232208 0.980890
												}
											}
										}
									}
								}
								JOINT mixamorig:LeftHandPinky1
								{
									OFFSET 20.463791 -0.302338 -8.562233
									CHANNELS 3 Xrotation Yrotation Zrotation
									JOINT mixamorig:LeftHandPinky2
									{
										OFFSET 6.908646 0.000000 0.000000
										CHANNELS 3 Xrotation Yrotation Zrotation
										JOINT mixamorig:LeftHandPinky3
										{
											OFFSET 4.622849 0.000000 0.000000
											CHANNELS 3 Xrotation Yrotation Zrotation
											JOINT mixamorig:LeftHandPinky4
											{
												OFFSET 5.216080 0.000000 0.000000
												CHANNELS 3 Xrotation Yrotation Zrotation
												End Site
												{
													OFFSET -0.606308 5.116241 0.814926
												}
											}
										}
									}
								}
							}
						}
					}
				}
				JOINT mixamorig:RightShoulder
				{
					OFFSET -12.001300 18.284088 1.348900
					CHANNELS 3 Xrotation Yrotation Zrotation
					JOINT mixamorig:RightArm
					{
						OFFSET -25.308500 -0.751312 -5.164599
						CHANNELS 3 Xrotation Yrotation Zrotation
						JOINT mixamorig:RightForeArm
						{
							OFFSET -54.684429 0.000000 0.000000
							CHANNELS 3 Xrotation Yrotation Zrotation
							JOINT mixamorig:RightHand
							{
								OFFSET -55.150291 0.000000 0.000000
								CHANNELS 3 Xrotation Yrotation Zrotation
								JOINT mixamorig:RightHandMiddle1
								{
									OFFSET -23.317566 0.000000 0.000000
									CHANNELS 3 Xrotation Yrotation Zrotation
									JOINT mixamorig:RightHandMiddle2
									{
										OFFSET -6.378403 0.000000 0.000000
										CHANNELS 3 Xrotation Yrotation Zrotation
										JOINT mixamorig:RightHandMiddle3
										{
											OFFSET -6.148193 0.000000 0.000000
											CHANNELS 3 Xrotation Yrotation Zrotation
											JOINT mixamorig:RightHandMiddle4
											{
												OFFSET -6.583389 0.000000 0.000000
												CHANNELS 3 Xrotation Yrotation Zrotation
												End Site
												{
													OFFSET 1.171692 6.395905 1.029786
												}
											}
										}
									}
								}
								JOINT mixamorig:RightHandThumb1
								{
									OFFSET -7.190521 -3.860474 5.435846
									CHANNELS 3 Xrotation Yrotation Zrotation
									JOINT mixamorig:RightHandThumb2
									{
										OFFSET -6.567429 -3.791718 3.791708
										CHANNELS 3 Xrotation Yrotation Zrotation
										JOINT mixamorig:RightHandThumb3
										{
											OFFSET -6.062469 -3.500153 3.500166
											CHANNELS 3 Xrotation Yrotation Zrotation
											JOINT mixamorig:RightHandThumb4
											{
												OFFSET -4.792618 -2.767029 2.767022
												CHANNELS 3 Xrotation Yrotation Zrotation
												End Site
												{
													OFFSET -0.100327 6.053253 1.276754
												}
											}
										}
									}
								}
								JOINT mixamorig:RightHandIndex1
								{
									OFFSET -23.048981 -0.310791 4.992554
									CHANNELS 3 Xrotation Yrotation Zrotation
									JOINT mixamorig:RightHandIndex2
									{
										OFFSET -6.227539 0.000000 0.000000
										CHANNELS 3 Xrotation Yrotation Zrotation
										JOINT mixamorig:RightHandIndex3
										{
											OFFSET -6.095047 0.000000 0.000000
											CHANNELS 3 Xrotation Yrotation Zrotation
											JOINT mixamorig:RightHandIndex4
											{
												OFFSET -5.484772 0.000000 0.000000
												CHANNELS 3 Xrotation Yrotation Zrotation
												End Site
												{
													OFFSET 1.420593 5.237305 0.797056
												}
											}
										}
									}
								}
								JOINT mixamorig:RightHandRing1
								{
									OFFSET -22.246323 0.020569 -3.963762
									CHANNELS 3 Xrotation Yrotation Zrotation
									JOINT mixamorig:RightHandRing2
									{
										OFFSET -6.322128 0.000000 0.000000
										CHANNELS 3 Xrotation Yrotation Zrotation
										JOINT mixamorig:RightHandRing3
										{
											OFFSET -5.900024 0.000000 0.000000
											CHANNELS 3 Xrotation Yrotation Zrotation
											JOINT mixamorig:RightHandRing4
											{
												OFFSET -6.518356 0.000000 0.000000
												CHANNELS 3 Xrotation Yrotation Zrotation
												End Site
												{
													OFFSET 1.636398 6.232697 0.982186
												}
											}
										}
									}
								}
								JOINT mixamorig:RightHandPinky1
								{
									OFFSET -20.411011 -0.303314 -8.561701
									CHANNELS 3 Xrotation Yrotation Zrotation
									JOINT mixamorig:RightHandPinky2
									{
										OFFSET -6.907349 0.000000 0.000000
										CHANNELS 3 Xrotation Yrotation Zrotation
										JOINT mixamorig:RightHandPinky3
										{
											OFFSET -4.623840 0.000000 0.000000
											CHANNELS 3 Xrotation Yrotation Zrotation
											JOINT mixamorig:RightHandPinky4
											{
												OFFSET -5.218353 0.000000 0.000000
												CHANNELS 3 Xrotation Yrotation Zrotation
												End Site
												{
													OFFSET 0.602097 5.118835 0.816273
												}
											}
										}
									}
								}
							}
						}
					}
				}
			}
		}
	}
	JOINT mixamorig:LeftUpLeg
	{
		OFFSET 18.168400 -13.561905 -0.039000
		CHANNELS 3 Xrotation Yrotation Zrotation
		JOINT mixamorig:LeftLeg
		{
			OFFSET 0.577358 -80.825211 -3.695000
			CHANNELS 3 Xrotation Yrotation Zrotation
			JOINT mixamorig:LeftFoot
			{
				OFFSET -0.577356 -83.370262 -6.520700
				CHANNELS 3 Xrotation Yrotation Zrotation
				JOINT mixamorig:LeftToeBase
				{
					OFFSET 0.750401 -20.798306 25.135401
					CHANNELS 3 Xrotation Yrotation Zrotation
					JOINT mixamorig:LeftToe_End
					{
						OFFSET -0.000500 0.001200 19.917799
						CHANNELS 3 Xrotation Yrotation Zrotation
						End Site
						{
							OFFSET 0.000000 19.917805 0.000000
						}
					}
				}
			}
		}
	}
	JOINT mixamorig:RightUpLeg
	{
		OFFSET -18.162500 -13.585098 -0.041000
		CHANNELS 3 Xrotation Yrotation Zrotation
		JOINT mixamorig:RightLeg
		{
			OFFSET -0.595024 -80.945297 -3.631900
			CHANNELS 3 Xrotation Yrotation Zrotation
			JOINT mixamorig:RightFoot
			{
				OFFSET 0.595024 -83.218193 -6.561200
				CHANNELS 3 Xrotation Yrotation Zrotation
				JOINT mixamorig:RightToeBase
				{
					OFFSET -0.753601 -20.807106 25.115000
					CHANNELS 3 Xrotation Yrotation Zrotation
					JOINT mixamorig:RightToe_End
					{
						OFFSET 0.000299 0.001700 19.918200
						CHANNELS 3 Xrotation Yrotation Zrotation
						End Site
						{
							OFFSET 0.000000 19.918203 0.000000
						}
					}
				}
			}
		}
	}
}
MOTION
Frames: 4
Frame Time: 0.033333
-2.553618 190.211899 223.334442 -4.570077 -1.306448 -1.628174 -0.135924 -4.618744 -1.969458 6.263314 -0.667899 4.611951 6.321523 -0.662848 4.529760 4.602449 0.606806 -0.439311 -6.292899 4.349933 -4.943524 0.000001 -0.000000 -0.000000 0.000001 -0.000000 -0.000000 0.000001 -0.000000 -0.000000 2.462569 -13.714660 -10.043493 -0.435227 -22.314933 -43.356825 0.000003 -26.542615 -0.000011 -13.551614 0.394715 14.492707 0.103228 1.190226 -9.913412 0.103893 1.194019 -9.945410 0.025941 0.598302 -4.964184 0.000002 -0.000004 0.000002 -1.540043 3.690183 6.142354 3.939044 7.948707 0.746817 -0.579464 1.575004 2.538697 0.000001 0.000002 0.000002 0.103562 1.192124 -9.929411 0.103558 1.192118 -9.929411 0.025935 0.598310 -4.964160 0.000003 -0.000001 0.000001 0.103558 1.192127 -9.929407 0.103565 1.192123 -9.929404 0.025932 0.598304 -4.964169 -0.000000 0.000001 0.000000 0.787124 5.188580 -9.457049 0.096223 -2.863092 -10.432492 0.025926 0.598310 -4.964176 -0.000001 -0.000001 0.000002 0.932891 -0.195776 11.519616 21.638488 12.690103 50.558406 -0.000005 19.569701 -0.000005 -25.701162 -8.773566 -10.508206 0.104549 -1.203683 9.928026 0.104546 -1.203688 9.928011 0.026187 -0.604103 4.963469 0.000002 -0.000001 -0.000000 -1.849248 -3.581794 -6.586142 4.637200 -8.634126 -0.225395 -1.273748 0.137308 -2.094886 0.000001 -0.000000 -0.000003 0.104552 -1.203681 9.928016 0.104555 -1.203681 9.928017 0.026179 -0.604098 4.963478 -0.000000 -0.000001 -0.000001 0.104556 -1.203686 9.928012 0.104554 -1.203685 9.928026 0.026179 -0.604095 4.963483 0.000000 0.000000 -0.000002 0.104560 -1.203683 9.928015 0.104547 -1.203679 9.928024 0.026181 -0.604108 4.963474 -0.000001 -0.000001 -0.000000 6.599859 2.458250 6.076623 37.552947 5.676753 2.925227 5.030509 -0.050531 3.104119 -44.545432 0.302381 -4.492718 0.000000 -0.000000 0.000001 -31.486434 -17.336246 -6.049791 26.308740 7.108104 -0.125089 11.374101 -0.033343 -5.498645 -1.196114 -0.040869 1.970621 -0.000000 -0.000001 0.000000 
-4.290738 189.354813 230.814636 -4.858140 -1.725017 -3.443247 1.043589 -3.921258 1.365261 6.032367 -0.511634 4.393641 6.073639 -0.530035 4.332208 4.319568 0.597944 -0.510066 -7.227537 4.363084 -5.246454 -0.000000 -0.000000 0.000000 -0.000000 -0.000000 0.000000 -0.000000 -0.000000 0.000000 2.443501 -13.593180 -10.040673 2.161324 -22.203671 -45.502065 0.000002 -28.157989 -0.000016 -14.150410 0.555895 13.523908 0.103225 1.190222 -9.913409 0.103896 1.194017 -9.945410 0.025936 0.598304 -4.964183 -0.000001 -0.000000 0.000000 -1.540044 3.690185 6.142346 3.939042 7.948711 0.746812 -0.579460 1.575000 2.538696 0.000001 -0.000002 -0.000001 0.103562 1.192125 -9.929412 0.103558 1.192118 -9.929411 0.025934 0.598308 -4.964153 0.000001 0.000002 -0.000001 0.103557 1.192128 -9.929405 0.103561 1.192123 -9.929401 0.025932 0.598305 -4.964167 0.000001 0.000001 0.000002 0.787117 5.188583 -9.457047 0.096219 -2.863091 -10.432489 0.025932 0.598308 -4.964176 0.000000 0.000002 0.000001 0.957978 -0.029654 11.657373 21.990525 15.238152 48.973064 0.000008 20.545655 -0.000006 -28.469808 -9.331784 -11.253974 0.104549 -1.203683 9.928027 0.104546 -1.203686 9.928010 0.026187 -0.604105 4.963469 0.000000 0.000001 -0.000000 -1.849247 -3.581790 -6.586141 4.637200 -8.634127 -0.225398 -1.273752 0.137309 -2.094889 0.000002 -0.000001 -0.000001 0.104552 -1.203681 9.928018 0.104555 -1.203681 9.928016 0.026179 -0.604097 4.963482 -0.000000 0.000000 -0.000001 0.104555 -1.203683 9.928011 0.104554 -1.203683 9.928027 0.026179 -0.604094 4.963484 -0.000000 0.000001 -0.000001 0.104559 -1.203682 9.928013 0.104546 -1.203683 9.928023 0.026181 -0.604106 4.963475 0.000000 0.000000 -0.000000 4.546994 2.821222 8.285135 40.378794 7.428793 3.422583 22.604065 0.178990 2.316852 -57.508171 2.859055 -12.130699 -0.000001 -0.000000 -0.000000 -31.123994 -15.628665 -5.294396 32.380243 4.825107 2.494087 6.012333 0.248107 -6.052775 -1.150322 -0.037772 1.896756 0.000000 0.000001 -0.000000 
-5.920877 189.275192 238.012726 -5.241517 -1.622216 -5.084218 1.760089 -2.957275 4.037070 6.021037 -0.304160 4.412892 6.049529 -0.343909 4.370321 4.158675 0.523414 -0.555079 -7.439451 3.895915 -5.225200 -0.000000 -0.000000 -0.000000 -0.000000 -0.000000 -0.000000 -0.000000 -0.000000 -0.000000 2.431819 -13.451147 -10.065704 3.803661 -23.991680 -48.079351 -0.000010 -26.118404 -0.000002 -14.814936 1.001122 11.101414 0.103224 1.190226 -9.913413 0.103895 1.194020 -9.945410 0.025941 0.598302 -4.964181 0.000001 -0.000000 -0.000000 -1.540048 3.690186 6.142349 3.939043 7.948710 0.746815 -0.579463 1.575004 2.538696 0.000002 -0.000001 -0.000003 0.103557 1.192128 -9.929420 0.103560 1.192119 -9.929414 0.025931 0.598311 -4.964160 0.000003 0.000001 0.000000 0.103555 1.192130 -9.929410 0.103558 1.192120 -9.929400 0.025938 0.598303 -4.964170 0.000001 -0.000000 0.000002 0.787118 5.188585 -9.457040 0.096217 -2.863096 -10.432494 0.025932 0.598309 -4.964173 -0.000002 0.000002 -0.000001 0.977695 0.069195 11.787459 22.402816 18.836762 46.890160 -0.000000 19.461731 -0.000007 -30.489220 -7.173363 -10.858994 0.104549 -1.203683 9.928028 0.104546 -1.203687 9.928015 0.026187 -0.604104 4.963471 0.000000 -0.000001 -0.000000 -1.849246 -3.581792 -6.586144 4.637200 -8.634127 -0.225400 -1.273751 0.137308 -2.094885 0.000001 0.000000 -0.000003 0.104552 -1.203682 9.928019 0.104556 -1.203683 9.928020 0.026179 -0.604097 4.963480 0.000001 -0.000000 -0.000001 0.104554 -1.203684 9.928015 0.104553 -1.203685 9.928027 0.026179 -0.604094 4.963485 -0.000001 -0.000001 0.000001 0.104559 -1.203683 9.928015 0.104547 -1.203679 9.928020 0.026181 -0.604106 4.963474 0.000000 0.000001 -0.000000 -0.584397 3.287052 10.894030 48.412354 10.154179 4.373098 31.413413 -0.125777 0.313885 -51.675145 4.090477 -16.525472 -0.000003 -0.000000 -0.000000 -29.195616 -16.614934 -3.854248 35.491869 4.844468 2.728441 1.900217 0.476756 -6.091654 -1.120223 -0.035862 1.848983 -0.000000 0.000001 -0.000000 
-7.530804 190.042923 244.810654 -5.205877 -0.806947 -5.602573 1.595581 -1.926232 5.081379 6.218444 -0.096267 4.627759 6.238906 -0.151318 4.599937 4.112476 0.319748 -0.502897 -6.913379 2.740712 -4.953666 -0.000000 -0.000000 0.000000 -0.000000 -0.000000 0.000000 -0.000000 -0.000000 0.000000 2.490098 -13.597224 -10.164273 3.491702 -25.163967 -51.188901 -0.000000 -22.593333 0.000011 -13.373233 2.605454 7.785126 0.103229 1.190223 -9.913409 0.103891 1.194020 -9.945413 0.025944 0.598305 -4.964184 0.000001 -0.000001 0.000001 -1.540044 3.690186 6.142352 3.939041 7.948710 0.746814 -0.579465 1.575004 2.538701 -0.000001 -0.000000 -0.000000 0.103561 1.192126 -9.929416 0.103555 1.192119 -9.929412 0.025938 0.598306 -4.964154 0.000000 0.000001 -0.000000 0.103562 1.192127 -9.929405 0.103563 1.192121 -9.929404 0.025933 0.598304 -4.964168 0.000004 0.000001 -0.000002 0.787122 5.188584 -9.457043 0.096217 -2.863096 -10.432493 0.025930 0.598307 -4.964169 -0.000004 -0.000001 -0.000000 0.990623 0.132876 11.872105 23.229169 23.457670 44.098778 -0.000003 17.646735 -0.000001 -31.755247 -3.755600 -7.645765 0.104547 -1.203682 9.928022 0.104546 -1.203686 9.928012 0.026186 -0.604104 4.963470 0.000000 -0.000000 -0.000001 -1.849248 -3.581792 -6.586147 4.637202 -8.634128 -0.225396 -1.273753 0.137309 -2.094883 -0.000001 0.000000 -0.000001 0.104552 -1.203681 9.928012 0.104554 -1.203683 9.928017 0.026178 -0.604099 4.963481 0.000001 -0.000000 -0.000001 0.104552 -1.203684 9.928013 0.104554 -1.203685 9.928028 0.026179 -0.604094 4.963484 -0.000001 -0.000000 0.000002 0.104558 -1.203682 9.928011 0.104546 -1.203680 9.928020 0.026182 -0.604107 4.963472 -0.000001 -0.000000 0.000001 -7.459629 3.517117 11.956548 56.734806 7.702485 5.172202 32.303813 -0.509034 -1.395551 -38.018165 4.367317 -18.024593 -0.000000 0.000001 -0.000000 -26.916606 -18.273729 -2.591493 36.710474 5.058277 1.203289 -1.431755 0.672020 -6.293489 -1.302572 -0.048001 2.135675 0.000000 -0.000001 -0.000000 
